# xmcd
#
# Track frame offsets: 
#        150
#        11636
#        30225
#        39357
#        54825
#        65237
#        79613
#        96622
#        109622
#        119563
#        134905
#        144000
#        161568
#        171468
#        187090
#        202060
#        217103
#        226460
#        243296
#        251889
#        263180
#        276213
#        286260
#        300537
#        314457
#        325510
#
# Disc length: 4511 seconds
#
# Revision: 1
# Processed by: cddbd v1.5.2PL0 Copyright (c) Steve Scherf et al.
# Submitted via: ExactAudioCopy v1.1
#
DISCID=86119d1a
DTITLE=Billie Holliday - At the Stratford Shaekspearean Festival 1957
DYEAR=1957
DGENRE=Jazz
TTITLE0=Nice Work If you cn Get It
TTITLE1=Willow Weep For Me
TTITLE2=I Only Have Eyes For You
TTITLE3=Billie's Blues
TTITLE4=Lover, Come Back To Me
TTITLE5=Lady Sings The Blues
TTITLE6=Ain't Nobody's Business
TTITLE7=Willow Weep For Me
TTITLE8=When Your Lover Has Gone
TTITLE9=God Bless The Child
TTITLE10=I Only Have Eyes For You
TTITLE11=Good Morning Heartache
TTITLE12=Them There Eyes
TTITLE13=Billie's Blues
TTITLE14=Oh, What A Little Moonlight Can Do
TTITLE15=Trav'ling Light
TTITLE16=Lover Come Back To Me
TTITLE17=You Better Go Now
TTITLE18=Them There Eyes
TTITLE19=When Your Lover Has Gone
TTITLE20=Don't Explain
TTITLE21=Good Morning Heartache
TTITLE22=You Better Go Now
TTITLE23=I Loves You Porgy
TTITLE24=Please Don't Talk About Me When I'm Gone
TTITLE25=Strange Fruit
EXTD=YEAR: 1957
EXTT0=
EXTT1=
EXTT2=
EXTT3=
EXTT4=
EXTT5=
EXTT6=
EXTT7=
EXTT8=
EXTT9=
EXTT10=
EXTT11=
EXTT12=
EXTT13=
EXTT14=
EXTT15=
EXTT16=
EXTT17=
EXTT18=
EXTT19=
EXTT20=
EXTT21=
EXTT22=
EXTT23=
EXTT24=
EXTT25=
PLAYORDER=
